<svg width="71" height="47" xmlns="http://www.w3.org/2000/svg" xmlns:xlink="http://www.w3.org/1999/xlink" overflow="hidden"><defs><clipPath id="clip0"><rect x="199" y="1151" width="71" height="47"/></clipPath></defs><g clip-path="url(#clip0)" transform="translate(-199 -1151)"><path d="M199 1154.48C199 1154.13 199 1153.79 199.341 1153.09 199.341 1152.74 199.683 1152.39 200.024 1152.04 200.365 1151.7 200.707 1151.35 201.048 1151.35 201.731 1151 202.072 1151 202.413 1151 266.586 1151 266.586 1151 266.586 1151 266.928 1151 267.269 1151 267.952 1151.35 268.293 1151.35 268.634 1151.7 268.976 1152.04 269.317 1152.39 269.658 1152.74 269.658 1153.09 270 1153.79 270 1154.13 270 1154.48 256.005 1165.27 256.005 1165.27 256.005 1165.27 238.255 1178.85 238.255 1178.85 238.255 1178.85 237.572 1179.55 236.207 1179.9 234.5 1179.9 232.793 1179.9 231.428 1179.55 230.745 1178.85 212.995 1165.27 212.995 1165.27 212.995 1165.27L199 1154.48ZM199 1194.52C199 1158.31 199 1158.31 199 1158.31 212.995 1168.76 212.995 1168.76 212.995 1168.76 230.745 1182.33 230.745 1182.33 230.745 1182.33 231.769 1183.03 232.793 1183.73 234.5 1183.73 236.207 1183.73 237.231 1183.03 238.255 1182.33 256.005 1169.1 256.005 1169.1 256.005 1169.1 270 1158.31 270 1158.31 270 1158.31 270 1194.52 270 1194.52 270 1194.52 252.25 1179.9 252.25 1179.9 252.25 1179.9 268.976 1196.96 268.976 1196.96 268.976 1196.96 268.293 1197.65 267.269 1198 266.586 1198 202.413 1198 202.413 1198 202.413 1198 201.731 1198 200.707 1197.65 200.024 1196.96 216.75 1179.9 216.75 1179.9 216.75 1179.9L199 1194.52Z" fill="#FFFFFF" fill-rule="evenodd"/></g></svg>