<svg version="1.1" viewBox="0 0 512 512" xmlns="http://www.w3.org/2000/svg" xmlns:xlink="http://www.w3.org/1999/xlink" overflow="hidden"><defs></defs><g id="icons"><path d=" M 263.371 1.51575 C 258.77 -0.498175 253.536 -0.498175 248.935 1.51575 L 68.8961 80.3209 C 47.7898 89.5593 34.1529 110.414 34.1529 133.454 L 34.1529 416.472 L 248.935 510.484 C 253.536 512.498 258.77 512.498 263.371 510.484 L 443.41 431.679 C 464.516 422.441 478.153 401.586 478.153 378.546 L 478.153 95.5283 Z M 298 412.07 C 298 413.727 296.657 415.07 295 415.07 C 294.473 415.07 293.956 414.931 293.5 414.668 L 243.846 386 L 243.846 386 L 145 386 C 134.507 386 126 377.493 126 367 L 126 314.266 L 100.871 299.757 C 96.5664 297.272 95.0916 291.768 97.5768 287.463 L 126 238.233 L 126 155 C 126 144.507 134.507 136 145 136 L 160 136 L 160 336 C 160 340.418 163.582 344 168 344 L 294 344 C 296.209 344 298 345.791 298 348 Z M 298 290 L 214 290 L 214 224 L 298 224 Z M 414.423 232.797 L 386 282.027 L 386 367 C 386 377.493 377.493 386 367 386 L 352 386 L 352 178 C 352 173.582 348.418 170 344 170 L 214 170 L 214 109.93 C 214 108.274 215.343 106.93 217 106.93 C 217.527 106.93 218.044 107.069 218.5 107.332 L 268.154 136 L 367 136 C 377.493 136 386 144.507 386 155 L 386 205.995 L 411.129 220.503 C 415.433 222.988 416.908 228.492 414.423 232.797 Z" stroke="none" stroke-width="1" stroke-linecap="butt" stroke-dasharray="" stroke-dashoffset="1" fill="#0C489C" fill-opacity="1"/></g></svg>