<svg version="1.1" viewBox="0 0 512 512" xmlns="http://www.w3.org/2000/svg" xmlns:xlink="http://www.w3.org/1999/xlink" overflow="hidden"><path d=" M 368 225.46 L 368 356 C 368 364.837 360.837 372 352 372 L 280 372 C 297.5 349 296.664 330.18 309.574 283.801 C 312.301 273.964 315.651 264.31 319.605 254.899 C 320.763 252.616 335.471 229.071 368 225.461 Z M 144 170 L 144 188.256 L 212.036 202.891 C 214.196 203.356 216.323 201.982 216.788 199.823 C 216.791 199.812 216.793 199.802 216.795 199.791 L 226.257 154 L 160 154 C 151.163 154 144 161.163 144 170 Z M 352 154 L 255.212 154 L 244.504 205.818 C 244.061 207.969 245.433 210.075 247.58 210.538 L 308 223.535 C 319.231 211.977 339.834 199.188 368 196.991 L 368 170 C 368 161.163 360.837 154 352 154 Z M 478 95.528 L 478 378.546 C 478 401.586 464.363 422.441 443.257 431.679 L 263.217 510.484 C 258.616 512.498 253.383 512.498 248.782 510.484 L 34 416.472 L 34 133.454 C 33.9996 110.414 47.6365 89.5586 68.743 80.32 L 248.783 1.515 C 253.384 -0.498835 258.617 -0.498835 263.218 1.515 Z M 402 156 C 402 136.118 385.882 120 366 120 L 146 120 C 126.118 120 110 136.118 110 156 L 110 249.933 C 110 250.21 110.143 250.467 110.379 250.613 C 120.295 256.827 131.358 260.985 142.912 262.841 C 143.428 262.92 143.91 262.566 143.989 262.05 C 143.996 262.003 144 261.956 144 261.909 L 144 217.258 L 289.094 248.469 C 290.17 248.695 290.859 249.749 290.633 250.825 C 290.611 250.929 290.581 251.032 290.543 251.131 C 287.389 259.352 284.624 267.717 282.258 276.199 C 270.188 319.56 268 372 209.5 372 L 160 372 C 151.163 372 144 364.837 144 356 L 144 324.94 C 148.306 325.765 152.68 326.189 157.064 326.206 C 173.217 326.206 182.656 324.009 202.265 315.916 C 202.96 315.626 203.76 315.941 204.072 316.626 L 212.095 334.774 C 212.321 335.287 212.819 335.627 213.379 335.651 C 213.94 335.673 214.466 335.377 214.738 334.885 L 246.298 277.378 C 246.692 276.668 246.436 275.773 245.726 275.379 C 245.601 275.31 245.467 275.26 245.328 275.229 L 184.004 261.473 C 183.209 261.295 182.421 261.796 182.243 262.591 C 182.175 262.896 182.205 263.215 182.33 263.501 L 190.334 281.928 C 190.485 282.274 190.486 282.667 190.336 283.013 C 190.193 283.365 189.908 283.639 189.551 283.769 C 175.09 289.197 169.232 290.039 154.998 290.039 C 116.193 290.039 88.666 269.537 78.07 260.127 C 77.9088 259.979 77.668 259.958 77.484 260.077 C 77.2992 260.194 77.2137 260.42 77.274 260.63 C 80.39 271.172 88.562 292.729 106.404 308.155 C 106.404 308.155 108.141 309.629 110 311.155 L 110 376 C 110 395.882 126.118 412 146 412 L 366 412 C 385.882 412 402 395.882 402 376 Z" id="icons" stroke="none" stroke-width="1" stroke-linecap="butt" stroke-dasharray="" stroke-dashoffset="1" fill="#0C489C" fill-opacity="1"/></svg>