<svg width="33" height="66" xmlns="http://www.w3.org/2000/svg" xmlns:xlink="http://www.w3.org/1999/xlink" overflow="hidden"><defs><clipPath id="clip0"><rect x="199" y="1016" width="33" height="66"/></clipPath></defs><g clip-path="url(#clip0)" transform="translate(-199 -1016)"><path d="M215.537 1026.59 215.133 1026.66 214.84 1026.88 214.657 1027.22 212.53 1033.75 205.747 1033.75 205.343 1033.83 205.05 1034.05 204.867 1034.42 204.793 1034.79 204.94 1035.2 205.197 1035.46 210.697 1039.51 208.607 1046.01 208.57 1046.42 208.68 1046.83 208.9 1047.09 209.12 1047.2 209.303 1047.27 209.487 1047.27 209.707 1047.27 209.89 1047.2 210.037 1047.12 215.537 1043.08 221 1047.12 221.147 1047.2 221.367 1047.27 221.55 1047.27 221.733 1047.27 221.917 1047.2 222.137 1047.12 222.393 1046.83 222.503 1046.42 222.467 1046.01 220.34 1039.51 225.84 1035.46 226.06 1035.2 226.207 1034.79 226.17 1034.42 225.95 1034.05 225.657 1033.83 225.253 1033.75 218.507 1033.75 216.417 1027.22 216.233 1026.88 215.94 1026.66 215.537 1026.59ZM215.5 1016 217.333 1016.04 219.313 1016.26 220.413 1016.41 221.55 1016.59 222.65 1016.89 223.75 1017.19 224.85 1017.63 225.877 1018.08 226.903 1018.64 227.857 1019.31 228.737 1020.05 229.507 1020.87 230.203 1021.87 230.827 1022.91 231.34 1024.1 231.707 1025.4 231.927 1026.85 232 1028.41 232 1065.18 215.5 1082 199 1065.18 199 1028.41 199.073 1026.88 199.293 1025.43 199.66 1024.13 200.137 1022.98 200.687 1021.94 201.383 1020.94 202.19 1020.12 203.033 1019.38 203.95 1018.71 204.94 1018.15 205.967 1017.67 207.03 1017.26 208.13 1016.93 209.23 1016.63 210.293 1016.45 211.43 1016.26 212.493 1016.15 213.52 1016.04 214.547 1016 215.5 1016Z" fill="#FFFFFF" fill-rule="evenodd"/></g></svg>