<svg width="65" height="52" xmlns="http://www.w3.org/2000/svg" xmlns:xlink="http://www.w3.org/1999/xlink" overflow="hidden"><defs><clipPath id="clip0"><rect x="199" y="880" width="65" height="52"/></clipPath></defs><g clip-path="url(#clip0)" transform="translate(-199 -880)"><path d="M246.692 889.701C249 892.418 250.154 895.522 250.154 899.015 250.154 902.507 249 905.612 246.692 908.328 244.385 911.433 241.308 913.373 237.462 915.313 233.231 916.866 229 917.642 224.385 917.642 222.462 917.642 220.154 917.642 218.231 917.254 215.154 919.194 211.692 920.746 207.846 921.91 207.077 921.91 205.923 922.298 204.769 922.298 204.769 922.298 204.769 922.298 204.769 922.298 204.385 922.298 204.385 922.298 204 922.298 203.615 921.91 203.615 921.522 203.615 921.522 203.615 921.134 203.615 921.134 203.615 921.134 203.615 921.134 203.615 921.134 203.615 920.746 203.615 920.746 203.615 920.746 203.615 920.746 203.615 920.746 203.615 920.358 203.615 920.358 203.615 920.358 203.615 920.358 204 920.358 204 920.358 204 919.97 204 919.97 204 919.97 204 919.97 204 919.97 204.385 919.97 204.385 919.97 204.385 919.582 204.385 919.582 204.769 919.194 205.154 918.806 205.538 918.418 205.923 918.03 205.923 917.642 206.308 917.642 206.692 917.254 207.077 916.866 207.077 916.089 207.462 915.701 207.846 915.313 208.231 914.925 208.231 914.149 208.615 913.761 205.538 911.821 203.231 909.881 201.308 907.164 199.769 904.448 199 901.731 199 899.015 199 895.522 200.154 892.418 202.462 889.701 204.385 886.597 207.846 884.269 211.692 882.716 215.538 881.164 219.769 880 224.385 880 229 880 233.231 881.164 237.462 882.716 241.308 884.269 244.385 886.597 246.692 889.701ZM264 908.328C264 911.433 263.231 914.149 261.308 916.478 259.769 919.194 257.462 921.134 254.385 923.075 254.769 923.463 254.769 924.239 255.154 924.627 255.538 925.015 255.538 925.791 255.923 926.179 256.308 926.567 256.692 926.955 256.692 927.343 257.077 927.343 257.462 927.731 257.846 928.119 258.231 928.507 258.615 928.895 258.615 929.284 258.615 929.284 258.615 929.284 258.615 929.284 259 929.284 259 929.284 259 929.672 259 929.672 259 929.672 259 929.672 259 929.672 259 929.672 259.385 930.06 259.385 930.06 259.385 930.06 259.385 930.06 259.385 930.06 259.385 930.06 259.385 930.448 259.385 930.448 259.385 930.448 259.385 930.448 259.385 930.448 259.385 930.836 259.385 930.836 259.385 931.224 259 931.224 259 931.612 258.615 931.612 258.231 932 258.231 932 256.692 931.612 255.923 931.612 254.769 931.224 251.308 930.448 247.846 928.507 244.769 926.567 242.846 926.955 240.538 926.955 238.615 926.955 231.692 926.955 226.308 925.403 221.308 922.298 222.846 922.298 223.615 922.298 224.385 922.298 228.231 922.298 232.077 921.91 235.538 920.746 239.385 919.582 242.462 918.03 245.154 916.089 248.231 913.761 250.538 911.045 252.462 908.328 254 905.224 254.769 902.119 254.769 899.015 254.769 897.075 254.385 895.134 254 893.194 257.077 895.134 259.385 897.463 261.308 899.791 263.231 902.507 264 905.224 264 908.328Z" fill="#FFFFFF" fill-rule="evenodd"/></g></svg>