<svg width="66" height="66" xmlns="http://www.w3.org/2000/svg" xmlns:xlink="http://www.w3.org/1999/xlink" overflow="hidden"><defs><clipPath id="clip0"><rect x="199" y="745" width="66" height="66"/></clipPath></defs><g clip-path="url(#clip0)" transform="translate(-199 -745)"><path d="M265 757.657C265 798.342 265 798.342 265 798.342 265 801.959 263.644 804.671 261.384 807.383 258.671 809.644 255.959 811 252.342 811 211.658 811 211.658 811 211.658 811 208.041 811 205.329 809.644 202.616 807.383 200.356 804.671 199 801.959 199 798.342 199 757.657 199 757.657 199 757.657 199 754.041 200.356 751.329 202.616 748.616 205.329 746.356 208.041 745 211.658 745 252.342 745 252.342 745 252.342 745 255.959 745 258.671 746.356 261.384 748.616 263.644 751.329 265 754.041 265 757.657ZM219.795 761.274C219.795 759.918 219.342 758.562 218.438 757.657 217.082 756.753 215.726 756.301 214.37 756.301 212.562 756.301 211.206 756.753 210.301 757.657 209.397 758.562 208.493 759.918 208.493 761.274 208.493 762.63 208.945 763.986 210.301 764.89 211.206 765.794 212.562 766.246 213.918 766.246 214.37 766.246 214.37 766.246 214.37 766.246 215.726 766.246 217.082 765.794 218.438 764.89 219.342 763.986 219.795 762.63 219.795 761.274ZM209.397 800.151C219.342 800.151 219.342 800.151 219.342 800.151 219.342 770.315 219.342 770.315 219.342 770.315 209.397 770.315 209.397 770.315 209.397 770.315L209.397 800.151ZM244.658 800.151C254.603 800.151 254.603 800.151 254.603 800.151 254.603 782.972 254.603 782.972 254.603 782.972 254.603 778.904 253.699 775.288 251.438 773.027 249.63 770.767 246.918 769.863 243.301 769.863 239.233 769.863 236.521 771.219 234.26 774.836 234.26 774.836 234.26 774.836 234.26 774.836 234.26 770.315 234.26 770.315 234.26 770.315 224.767 770.315 224.767 770.315 224.767 770.315 224.767 772.123 224.767 782.068 224.767 800.151 234.26 800.151 234.26 800.151 234.26 800.151 234.26 783.425 234.26 783.425 234.26 783.425 234.26 782.52 234.712 781.616 234.712 781.164 235.164 780.26 235.616 779.356 236.521 778.452 237.425 778 238.781 777.548 239.685 777.548 243.301 777.548 244.658 779.808 244.658 784.329L244.658 800.151Z" fill="#FFFFFF" fill-rule="evenodd"/></g></svg>