<svg width="65" height="66" xmlns="http://www.w3.org/2000/svg" xmlns:xlink="http://www.w3.org/1999/xlink" overflow="hidden"><defs><clipPath id="clip0"><rect x="199" y="609" width="65" height="66"/></clipPath></defs><g clip-path="url(#clip0)" transform="translate(-199 -609)"><path d="M264 661.105C264 662.098 263.511 663.09 263.511 664.579 263.023 666.068 262.534 667.06 262.534 668.053 261.556 669.542 260.09 671.03 256.669 673.015 253.737 674.504 250.805 675 248.361 675 247.383 675 246.406 675 245.917 675 244.94 675 243.962 675 242.985 674.504 242.008 674.008 241.519 674.008 241.03 674.008 240.541 673.511 239.564 673.511 238.098 673.015 237.12 672.519 236.143 672.023 236.143 672.023 233.211 671.03 230.278 669.542 227.835 668.053 223.925 665.572 220.015 662.098 215.617 658.128 211.707 653.662 208.286 649.692 205.842 645.722 204.376 643.241 202.91 640.263 201.932 637.286 201.932 637.286 201.444 636.293 200.955 635.301 200.466 633.812 200.466 632.82 199.977 632.323 199.977 631.827 199.977 631.331 199.489 630.338 199.489 629.346 199 628.354 199 627.361 199 626.865 199 625.872 199 624.88 199 622.399 199.489 619.421 200.955 616.444 202.91 612.97 204.376 611.481 205.842 610.489 206.82 610.489 207.797 609.993 209.263 609.496 210.729 609.496 211.707 609 212.684 609 212.684 609 213.173 609 213.662 609.496 214.15 609.496 214.639 610.489 216.105 612.97 216.105 613.466 216.594 614.459 217.083 615.451 218.06 616.444 218.549 617.436 219.038 618.429 219.526 619.421 220.015 619.917 220.504 620.91 220.504 620.91 220.504 621.406 220.992 621.902 221.481 622.895 221.97 623.391 221.97 623.887 222.459 624.384 222.459 624.88 222.459 624.88 222.459 625.872 221.97 626.369 220.992 627.361 220.015 628.354 219.526 629.346 218.06 629.842 217.083 630.835 216.105 631.827 215.617 632.323 214.639 633.316 214.15 634.308 214.15 634.805 214.15 634.805 214.15 635.301 214.15 635.797 214.639 636.293 214.639 636.293 214.639 636.79 214.639 636.79 215.128 637.286 215.128 637.782 215.617 638.278 215.617 638.775 216.105 638.775 218.06 642.745 220.992 646.714 223.925 649.692 226.857 652.669 230.767 655.647 234.677 657.632 234.677 658.128 235.165 658.128 235.654 658.624 236.143 658.624 236.632 659.12 236.632 659.12 237.12 659.12 237.12 659.12 237.609 659.617 238.098 659.617 238.586 659.617 238.586 659.617 239.075 659.617 240.053 659.12 241.03 658.128 241.519 657.632 242.496 656.639 243.474 655.647 243.962 654.158 244.94 653.662 245.917 652.669 246.895 651.677 247.383 651.181 248.361 651.181 248.85 651.181 248.85 651.181 249.338 651.677 249.827 651.677 250.316 652.173 251.293 652.669 251.782 653.166 252.271 653.166 252.271 653.166 253.248 653.662 253.737 654.158 254.714 654.654 255.692 655.151 256.669 655.647 257.647 656.639 258.624 657.135 259.602 657.632 260.09 657.632 262.534 659.12 263.511 659.617 263.511 660.113 264 660.609 264 661.105 264 661.105Z" fill="#FFFFFF" fill-rule="evenodd"/></g></svg>