<svg width="77" height="53" xmlns="http://www.w3.org/2000/svg" xmlns:xlink="http://www.w3.org/1999/xlink" overflow="hidden"><defs><clipPath id="clip0"><rect x="199" y="474" width="77" height="53"/></clipPath></defs><g clip-path="url(#clip0)" transform="translate(-199 -474)"><path d="M205.754 516.468C205.754 477.397 205.754 477.397 205.754 477.397 205.754 476.378 206.092 475.699 207.105 475.019 207.781 474.34 208.456 474 209.469 474 265.531 474 265.531 474 265.531 474 266.206 474 267.219 474.34 267.895 475.019 268.57 475.699 268.908 476.378 268.908 477.397 268.908 516.468 268.908 516.468 268.908 516.468 276 523.263 276 523.263 276 523.263 276 524.282 275.662 525.301 274.987 525.981 274.311 526.66 273.636 527 272.623 527 202.377 527 202.377 527 202.377 527 201.364 527 200.351 526.66 199.675 525.981 199 525.301 199 524.282 199 523.263L205.754 516.468ZM209.469 516.468C265.531 516.468 265.531 516.468 265.531 516.468 265.531 477.397 265.531 477.397 265.531 477.397 209.469 477.397 209.469 477.397 209.469 477.397L209.469 516.468ZM227.706 522.923C227.706 523.263 228.044 523.263 228.719 523.263 246.281 523.263 246.281 523.263 246.281 523.263 246.956 523.263 247.294 523.263 247.294 522.923 247.294 522.923 247.294 522.923 247.294 522.923 244.93 520.545 244.93 520.545 244.93 520.545 244.93 520.545 244.254 520.205 243.579 520.205 231.083 520.205 231.083 520.205 231.083 520.205 230.408 520.205 230.07 520.545 230.07 520.545 227.706 522.923 227.706 522.923 227.706 522.923Z" fill="#FFFFFF" fill-rule="evenodd"/></g></svg>