<svg width="71" height="66" xmlns="http://www.w3.org/2000/svg" xmlns:xlink="http://www.w3.org/1999/xlink" overflow="hidden"><defs><clipPath id="clip0"><rect x="199" y="1422" width="71" height="66"/></clipPath></defs><g clip-path="url(#clip0)" transform="translate(-199 -1422)"><path d="M268.66 1436.92C269.553 1438.73 270 1440.53 269.553 1442.79 257.943 1481.22 257.943 1481.22 257.943 1481.22 257.05 1483.03 256.157 1484.84 254.371 1485.74 253.031 1487.1 251.245 1488 249.459 1488 210.164 1488 210.164 1488 210.164 1488 208.377 1488 206.145 1487.1 203.912 1485.29 202.126 1483.93 200.786 1482.12 199.893 1479.86 199.447 1478.05 199 1476.25 199.893 1474.44 199.893 1474.44 199.893 1473.99 199.893 1473.08 199.893 1472.63 199.893 1472.18 200.34 1471.73 200.34 1471.27 199.893 1471.27 199.893 1470.82 199.893 1470.37 199.893 1469.92 199.893 1469.92 199.893 1469.47 199.893 1469.47 200.34 1469.01 200.34 1468.56 200.786 1468.56 200.786 1468.11 201.233 1467.66 201.233 1467.21 201.679 1467.21 202.126 1465.85 203.019 1464.49 203.465 1463.14 203.912 1461.78 204.359 1460.42 204.805 1459.07 204.805 1459.07 204.805 1458.62 204.805 1458.16 204.805 1457.26 204.805 1456.81 204.805 1456.81 204.805 1456.36 205.252 1455.9 205.698 1455.45 205.698 1455 206.145 1454.55 206.145 1454.55 206.591 1453.64 207.484 1452.29 207.931 1450.48 208.377 1449.12 208.824 1447.77 208.824 1446.86 209.27 1446.41 208.824 1445.96 208.824 1445.51 208.824 1444.6 208.824 1444.15 208.824 1444.15 209.27 1443.7 209.27 1443.25 209.717 1442.79 210.164 1442.34 210.61 1441.89 210.61 1441.89 211.503 1441.44 211.95 1440.08 212.396 1438.27 213.289 1436.47 213.736 1435.11 213.736 1434.21 213.736 1434.21 213.736 1433.75 213.736 1433.3 213.736 1432.85 213.289 1432.4 213.736 1431.95 213.736 1431.95 213.736 1431.49 213.736 1431.04 214.182 1431.04 214.182 1430.59 214.629 1430.14 215.075 1429.69 215.075 1429.69 215.522 1429.23 215.522 1429.23 215.969 1428.78 215.969 1427.88 216.415 1427.42 216.415 1426.97 216.862 1426.52 216.862 1426.07 217.308 1425.62 217.308 1425.16 217.755 1424.26 217.755 1423.81 218.201 1423.81 218.648 1423.36 219.094 1422.9 219.541 1422.45 219.987 1422.45 220.434 1422 220.88 1422 221.327 1422 222.22 1422 222.667 1422.45 222.667 1422.45 222.667 1422.45 222.667 1422.45 224.006 1422.45 224.453 1422 224.899 1422 257.05 1422 257.05 1422 257.05 1422 259.283 1422 260.622 1422.9 261.962 1424.71 262.855 1426.07 263.302 1427.88 262.855 1430.14 251.245 1469.01 251.245 1469.01 251.245 1469.01 249.906 1472.18 249.012 1474.44 248.119 1475.34 247.226 1476.25 245.44 1476.7 242.761 1476.7 206.145 1476.7 206.145 1476.7 206.145 1476.7 205.252 1476.7 204.805 1477.15 204.359 1477.6 203.912 1478.05 203.912 1478.51 204.359 1479.41 204.805 1481.22 207.038 1482.12 210.61 1482.12 249.459 1482.12 249.459 1482.12 249.459 1482.12 250.352 1482.12 250.799 1482.12 251.692 1481.67 252.585 1481.22 253.031 1480.77 253.031 1479.86 265.981 1437.82 265.981 1437.82 265.981 1437.82 265.981 1436.92 265.981 1436.47 265.981 1435.11 267.321 1435.56 268.214 1436.47 268.66 1436.92ZM219.987 1448.22C219.987 1448.67 219.987 1448.67 220.434 1449.12 220.434 1449.58 220.88 1449.58 220.88 1449.58 246.78 1449.58 246.78 1449.58 246.78 1449.58 247.226 1449.58 247.673 1449.58 247.673 1449.12 248.119 1448.67 248.566 1448.67 248.566 1448.22 249.459 1445.51 249.459 1445.51 249.459 1445.51 249.459 1445.05 249.459 1444.6 249.459 1444.6 249.012 1444.15 249.012 1444.15 248.566 1444.15 222.667 1444.15 222.667 1444.15 222.667 1444.15 222.667 1444.15 222.22 1444.15 221.774 1444.6 221.327 1444.6 221.327 1445.05 220.88 1445.51L219.987 1448.22ZM223.56 1437.37C223.56 1437.37 223.56 1437.82 223.56 1438.27 224.006 1438.27 224.006 1438.73 224.453 1438.73 250.352 1438.73 250.352 1438.73 250.352 1438.73 250.799 1438.73 250.799 1438.27 251.245 1438.27 251.692 1437.82 252.138 1437.37 252.138 1437.37 253.031 1434.66 253.031 1434.66 253.031 1434.66 253.031 1434.21 253.031 1433.75 253.031 1433.3 252.585 1433.3 252.585 1433.3 252.138 1433.3 226.239 1433.3 226.239 1433.3 226.239 1433.3 225.792 1433.3 225.792 1433.3 225.346 1433.3 224.899 1433.75 224.899 1434.21 224.453 1434.66L223.56 1437.37Z" fill="#FFFFFF" fill-rule="evenodd"/></g></svg>