<svg width="77" height="66" xmlns="http://www.w3.org/2000/svg" xmlns:xlink="http://www.w3.org/1999/xlink" overflow="hidden"><defs><clipPath id="clip0"><rect x="199" y="1287" width="77" height="66"/></clipPath></defs><g clip-path="url(#clip0)" transform="translate(-199 -1287)"><path d="M276 1305.21C276 1321.59 276 1321.59 276 1321.59 199 1321.59 199 1321.59 199 1321.59 199 1305.21 199 1305.21 199 1305.21 199 1302.93 199.906 1301.57 201.265 1300.2 202.624 1298.83 203.982 1297.92 206.247 1297.92 221.194 1297.92 221.194 1297.92 221.194 1297.92 221.194 1291.1 221.194 1291.1 221.194 1291.1 221.194 1290.19 221.647 1289.28 222.1 1288.37 223.006 1287.46 223.912 1287 225.271 1287 249.729 1287 249.729 1287 249.729 1287 251.088 1287 251.994 1287.46 252.9 1288.37 253.806 1289.28 253.806 1290.19 253.806 1291.1 253.806 1297.92 253.806 1297.92 253.806 1297.92 269.206 1297.92 269.206 1297.92 269.206 1297.92 271.018 1297.92 272.376 1298.83 273.735 1300.2 275.094 1301.57 276 1302.93 276 1305.21ZM276 1325.69C276 1346.17 276 1346.17 276 1346.17 276 1347.99 275.094 1349.81 273.735 1351.18 272.376 1352.54 271.018 1353 269.206 1353 206.247 1353 206.247 1353 206.247 1353 203.982 1353 202.624 1352.54 201.265 1351.18 199.906 1349.81 199 1347.99 199 1346.17 199 1325.69 199 1325.69 199 1325.69 227.988 1325.69 227.988 1325.69 227.988 1325.69 227.988 1332.52 227.988 1332.52 227.988 1332.52 227.988 1333.43 228.441 1333.88 228.894 1334.34 229.347 1334.79 229.8 1335.25 230.706 1335.25 244.294 1335.25 244.294 1335.25 244.294 1335.25 245.2 1335.25 245.653 1334.79 246.106 1334.34 247.012 1333.88 247.012 1333.43 247.012 1332.52 247.012 1325.69 247.012 1325.69 247.012 1325.69L276 1325.69ZM226.629 1297.92C248.371 1297.92 248.371 1297.92 248.371 1297.92 248.371 1292.46 248.371 1292.46 248.371 1292.46 226.629 1292.46 226.629 1292.46 226.629 1292.46L226.629 1297.92ZM242.935 1325.69C242.935 1331.15 242.935 1331.15 242.935 1331.15 232.065 1331.15 232.065 1331.15 232.065 1331.15 232.065 1325.69 232.065 1325.69 232.065 1325.69L242.935 1325.69Z" fill="#FFFFFF" fill-rule="evenodd"/></g></svg>